<?xml version="1.0" encoding="UTF-8"?>
<!DOCTYPE svg PUBLIC "-//W3C//DTD SVG 1.1//EN" "http://www.w3.org/Graphics/SVG/1.1/DTD/svg11.dtd">
<!-- Creator: CorelDRAW -->
<svg xmlns="http://www.w3.org/2000/svg" xml:space="preserve" width="3.70333in" height="2.08319in" version="1.1" style="shape-rendering:geometricPrecision; text-rendering:geometricPrecision; image-rendering:optimizeQuality; fill-rule:evenodd; clip-rule:evenodd"
viewBox="0 0 3703.33 2083.19"
 xmlns:xlink="http://www.w3.org/1999/xlink"
 xmlns:xodm="http://www.corel.com/coreldraw/odm/2003">
 <defs>
  <style type="text/css">
   <![CDATA[
    .fil6 {fill:#001526}
    .fil10 {fill:#001527}
    .fil9 {fill:#00AAC4}
    .fil4 {fill:#5C2D91}
    .fil3 {fill:#6C429C}
    .fil0 {fill:#E6E7E8}
    .fil8 {fill:#ED0E69}
    .fil7 {fill:#F58121}
    .fil11 {fill:#FEFEFE}
    .fil5 {fill:#FEFEFE;fill-rule:nonzero}
    .fil2 {fill:#373435;fill-opacity:0.031373}
    .fil1 {fill:#373435;fill-opacity:0.101961}
   ]]>
  </style>
 </defs>
 <g id="Layer_x0020_1">
  <metadata id="CorelCorpID_0Corel-Layer"/>
  <polygon class="fil0" points="-0,0 3703.33,0 3703.33,2083.19 -0,2083.19 "/>
  <path class="fil1" d="M789.57 678.01l404.72 -274.37 -0.02 -0.01 -404.72 274.37 -66.93 -64.93 20.84 -21.86 22.14 -21.11 23.13 -20.04 24.09 -18.93 25 -17.78 -38.81 26.95 6.43 -5.06 13.03 -9.75 13.29 -9.42 -831.77 577.73 0 1.33 0 16.5 0 101.63 0 0.02 0 84.39 0 25.9 0 60.26 0 37.69 0 23.14 0 33.57 0 6.86 0 19.42 0 36.27 0 4.72 0 64.06 0 0.26 0 15.96 0 6.23 0 9.33 0 1.19 0 15.48 0 5.36 0 53.72 0 1.27 0 6.39 0 13.64 0 11.54 0 0.56 0 1.3 0 10.2 0 0.74 0 0.6 0 8.77 0 0.21 0 12.95 0 5.05 0 8.64 0 13.3 0 33.36 0 4.87 0 0.99 0 25.18 0 6.31 0 0.67 0 2.09 0 7.65 0 0.43 0 0.01 0 0 0 3.06 0 1.6 0 7.94 0 4.7 0 2.36 0 0.76 0 7.87 0 2.5 0 0.01 0 6.48 0 5.31 0 0.79 0 3.55 0 8.13 0 2.69 0 0.35 0 5.51 0 4.41 0 6.03 0 0.16 0 0.45 0 2.91 0 0.33 0 2.72 0 7.65 0 3.52 0 1.22 0 2.51 0 1.08 0 4.12 0 6.67 0 2.57 0 1.24 0 4.83 0 12.87 0 0.41 0 0.54 0 14.87 0 2.38 0 10.94 0 5.11 0 15.42 0 10.8 1.02 0 4.36 0 0.02 0 1.27 0 19.46 0 0.33 0 17.44 0 14.63 0 66.62 0 279.89 0 52.42 0 3.03 0 2.22 0 9.73 0 42.09 0 3.38 0 40.77 0 8.08 0 65.63 0 44.94 0 3.62 0 8.7 0 0.05 0 5.5 0 3.04 0 12.69 0 9.66 0 18 0 5.23 0 14.91 0 4.26 0 10.47 0 10.41 0 3.9 0 1.57 0 17.8 0 21.26 0 2.21 0 10.44 0 26.93 0 6.66 0 25.56 0 26.9 0 0.06 0 6.52 0 0.8 0 6.84 0 5.15 0 22.56 0 1.92 0 12.65 0 0.93 0 12.93 0 11.46 0 41.43 0 46.38 0 0.23 0 30.74 0 0.2 0 2.13 0 9.93 0 1.95 0 18.95 0 1.79 0 18.19 0 10.76 0 3.25 0 2.41 0 2.17 0 12.36 0 5.17 0 0.46 0 18.33 0 5.22 0 6.42 0 3.35 0 4.29 0 20.15 0 4.2 0 9.63 0 22.1 0 6.77 0 4.95 0 11.78 0 20.81 0 4.34 0 20.11 0 76.42 0 45.19 0 15.93 0 462.07 0 1050.84 -458.53 -8.63 3.42 -8.82 3 -9.01 2.57 -9.18 2.13 -9.34 1.68 -9.49 1.21 -9.62 0.74 -9.75 0.25 -541.83 0 552.55 -255.71 -0.02 -4.6 -0.04 -4.7 -0.07 -4.79 -0.08 -4.85 -0.09 -4.9 -0.09 -4.94 -0.09 -4.96 -0.07 -4.96 -0.06 -4.95 -0.03 -4.92 0.01 -4.87 0.04 -4.81 0.09 -4.73 0.15 -4.64 0.2 -4.54 0.28 -4.41 1.28 -8.51 2.5 -7.2 2.02 -3.29 35.42 -16.72 0.44 -23.95 -4.6 -0.28 -4.84 0.41 -4.92 1 -4.84 1.52 -4.59 1.96 -17.94 8.52 -0.08 -10.48 -2.31 -0.46 -2.82 -0.3 -3.18 -0.16 -3.36 -0.05 -3.38 0.06 -3.24 0.14 -2.93 0.2 -2.45 0.24 -42.21 20.14 -3.96 -4.54 -4.37 -4.15 -4.71 -3.69 -5.02 -3.22 -5.31 -2.72 -5.57 -2.21 -5.8 -1.67 -7.96 -1.52 -7.63 -0.75 -7.3 -0.02 -6.95 0.67 -6.6 1.32 -6.24 1.93 -5.87 2.5 -65.89 31.82 -3.42 -6.17 -4.63 -6.44 -5.28 -5.81 -5.87 -5.13 -6.39 -4.41 -6.85 -3.65 -7.24 -2.85 -7.56 -2.01 -7.81 -1.12 -8 -0.19 -8.13 0.78 -8.18 1.79 -6.09 2.03 -5.06 2.3 -20.48 10.05 -0.05 -13.35 -23.39 -0 -43.46 21.43 -0.22 -0.29 -3.3 -3.78 -3.6 -3.56 -3.9 -3.31 -4.2 -3.04 -4.49 -2.75 -4.79 -2.44 -2.53 -1.09 -2.63 -0.98 -2.72 -0.87 -2.8 -0.76 -2.86 -0.65 -2.91 -0.53 -2.96 -0.41 -2.99 -0.29 -3.02 -0.18 -3.02 -0.05 -3.03 0.07 -3.02 0.2 -3 0.33 -2.97 0.45 -2.93 0.59 -2.87 0.72 -5.31 1.69 -4.48 1.87 -22.3 11.13 0 -12.82 -2.13 -0.41 -2.81 -0.29 -3.27 -0.17 -3.5 -0.06 -3.5 0.06 -3.27 0.17 -2.81 0.29 -2.12 0.41 -35.1 17.61 0 -17.6 -2.3 -0.46 -2.83 -0.3 -3.18 -0.17 -3.37 -0.04 -3.39 0.05 -3.24 0.14 -2.93 0.2 -2.44 0.25 -14.22 7.18 -1.7 -1.34 -4.22 -2.65 -4.97 -2.38 -5.9 -2.04 -8.03 -1.82 -3.08 -0.33 287.99 -146.11 7.34 -3.77 7.36 -4.11 7.31 -4.4 7.22 -4.65 7.06 -4.85 6.84 -5.01 6.57 -5.12 6.24 -5.19 5.85 -5.21 5.4 -5.19 4.9 -5.12 0.78 -0.83 0.78 -0.8 0.78 -0.77 0.78 -0.76 0.79 -0.77 0.79 -0.79 0.8 -0.83 0.8 -0.88 2.8 -3.22 2.79 -3.36 2.78 -3.49 2.76 -3.62 2.73 -3.74 2.7 -3.86 2.67 -3.98 2.63 -4.09 2.59 -4.2 2.54 -4.3 2.48 -4.41 2.42 -4.5 2.35 -4.59 2.28 -4.68 2.21 -4.77 2.12 -4.85 2.04 -4.93 1.94 -5 1.85 -5.07 1.74 -5.13 1.63 -5.2 1.52 -5.26 1.4 -5.31 1.27 -5.36 1.15 -5.41 1.01 -5.44 0.87 -5.48 0.72 -5.52 0.57 -5.55 0.41 -5.58 0.25 -5.6 0.09 -5.62 -0.05 -6.67 -0.14 -6.46 -0.24 -6.28 -0.36 -6.12 -0.48 -5.98 -0.61 -5.87 -0.75 -5.79 -0.89 -5.73 -1.06 -5.69 -1.22 -5.68 -1.39 -5.69 -1.57 -5.73 -1.77 -5.79 -1.97 -5.87 -2.18 -5.98 -2.39 -6.12 -1.83 -4.41 -1.88 -4.26 -1.93 -4.15 -1.99 -4.06 -2.05 -3.98 -2.12 -3.94 -2.19 -3.92 -2.27 -3.93 -1.11 -1.87 -1.17 -1.93 -1.21 -1.95 -1.23 -1.95 -1.24 -1.93 -1.22 -1.87 -1.2 -1.8 -1.15 -1.69 -1.21 -1.75 -1.32 -1.88 -1.4 -1.95 -1.45 -1.97 -1.48 -1.92 -1.47 -1.82 -1.44 -1.67 -1.37 -1.45 -1.74 0.46 -1.68 0.68 -1.63 0.85 -276.4 149.33 -2.55 -1.61 25.26 -13.66 2.91 -1.68 3.67 -2.2 4.3 -2.64 4.77 -2.98 5.11 -3.22 5.31 -3.37 5.37 -3.42 5.28 -3.38 5.06 -3.24 4.7 -3.01 4.2 -2.68 3.55 -2.27 2.77 -1.75 1.84 -1.14 7.39 -4.48 7.51 -4.63 7.61 -4.76 7.69 -4.87 7.76 -4.95 7.81 -5.01 7.83 -5.05 7.85 -5.07 7.85 -5.06 7.82 -5.04 7.78 -4.99 7.73 -4.92 7.65 -4.83 7.56 -4.72 7.45 -4.59 7.33 -4.43 61.5 -38.37 -0.65 -1.2 -0.66 -1.03 -0.69 -0.91 -0.75 -0.83 -0.83 -0.81 -0.94 -0.83 -1.07 -0.91 -1.23 -1.03 -1.01 -0.87 -0.97 -0.87 -0.95 -0.87 -0.94 -0.88 -0.96 -0.88 -0.97 -0.88 -1.01 -0.88 -1.06 -0.87 -2.04 -1.65 -2.03 -1.64 -2.02 -1.63 -2.04 -1.63 -2.07 -1.62 -2.12 -1.61 -2.19 -1.61 -2.27 -1.61 -3.5 -2.38 -3.56 -2.33 -3.62 -2.28 -3.67 -2.22 -3.72 -2.18 -3.77 -2.11 -3.82 -2.06 -3.87 -2 -3.91 -1.94 -3.96 -1.87 -4 -1.81 -4.04 -1.74 -4.08 -1.68 -4.12 -1.61 -4.16 -1.54 -4.19 -1.46 -4.22 -1.39 -4.26 -1.31 -4.29 -1.23 -4.31 -1.15 -4.34 -1.07 -4.37 -0.99 -4.39 -0.9 -4.41 -0.81 -4.44 -0.73 -4.46 -0.64 -4.47 -0.54 -4.49 -0.45 -4.5 -0.35 -4.52 -0.26 -4.53 -0.16 -4.54 -0.06 -200.03 -0 -388.45 221.8 0 -233.54 0.25 -9.75 0.74 -9.62 1.21 -9.49 1.68 -9.34 2.13 -9.18 2.57 -9.01 3 -8.82 3.42 -8.63 3.82 -8.42 4.21 -8.2 4.59 -7.96 4.96 -7.72 5.31 -7.46 5.66 -7.19 5.99 -6.91 6.31 -6.61 6.61 -6.31 6.91 -5.99 7.19 -5.66 7.46 -5.31 7.72 -4.96 -517.04 314.49 -98.41 0 0 -37.6 -42.72 26.47 0 -26.47 -123.47 0 -66.24 -344.39 66.24 344.39 -108.99 0 -72.66 46.5 0 -46.5 -41.02 0 -105.53 68.48 -50.91 -49.39 -12.77 -19.09 -6.91 0 -71.11 -68.98 -1.07 -1.04zm637.16 107.62l-142.14 87.44 -19.02 11.7m0 0l19.02 -11.7m-90.3 -469.44l-404.72 274.37"/>
  <path class="fil2" d="M206.02 1843.17c6,9 12,22 16,32 3,6 6,19 22,19 3,0 12,0 16,-6 6,-3 12,-9 16,-16l6 -22 16 -6 0 0c-3,9 -3,16 -3,22 0,19 16,25 28,25 6,0 12,-3 12,-9 0,-9 -3,-22 -9,-35 6,-6 16,-16 22,-19l0 0c3,16 6,32 6,41 0,9 -3,22 -9,28 -6,13 -19,25 -34,25 -12,0 -25,-6 -34,-16l0 0c-9,9 -22,19 -44,19l-6 0c0,13 -3,25 -9,32 -12,25 -50,41 -84.01,41 -50,0 -75.01,-28 -75.01,-66 0,-22 6,-44 19,-60l9 3c-6,13 -12,28 -12,41 0,35 28,54 62,54 31,0 68.01,-19 75.01,-41 -3,-25 -12,-38 -25,-60 3,-6 9,-16 16,-22l0 0 0 0 0 0 0 0 6 -3 0 0 -3 -1 0 0 0 0 0.02 -0.02 -0.01 0.02 0 0zm563.05 -133.01c9,6 22,16 31,22 -6,6 -12,16 -22,22 -9,-9 -19,-16 -31,-22 6,-6 12,-16 22,-22l0 0 0 0 0 0zm6 98.01c-16,0 -31,13 -31,19 0,19 34,22 71.01,22 -6,-22 -22,-41 -44,-41l3 0 1 0 0 0 0 0 0 0 -0.01 0zm-37 95.01c22,0 40,0 56,-3 16,-3 31,-13 31,-19 0,-3 0,-3 0,-6 -9,0 -19,0 -28,0 -28,0 -53,-6 -59,-22 -3,-3 -3,-9 -3,-16 0,-16 6,-32 19,-44 9,-9 22,-16 31,-16 22,0 37,16 47,44 6,16 9,32 9,51 0,13 -3,25 -12,35 -16,16 -44,22 -90.01,22l-22 0 0 0 -6 0c-12,0 -19,-3 -25,-6l0 0c0,3 0,6 0,6 0,9 -3,22 -9,35 -19,32 -40,44 -59,44 -19,0 -44,-6 -62,-16l3 -6c6,3 16,6 28,6 34,0 78.01,-32 84.01,-66 0,-3 -3,-6 -6,-9 -9,-13 -16,-22 -22,-32 6,-9 9,-19 12,-25l3 0c16,28 28,47 56,47l3 0 0 0 22 0 0 0 0 0 0 0 0 -3 0 0 -1 -1 0 0 0 0 0 -0.01 0 0.01zm-146.02 32c3,-13 3,-28 3,-44l0 -22c0,-41 -6,-98.01 -9,-136.01 6,-6 16,-16 25,-22l3 0c6,47 6,101.01 6,152.01 0,13 0,25 -3,35 0,13 -6,22 -22,35l-3 0 0 0 0 0 0 0 0 3 0 0 0 -1 0 0 0 0 0 0zm-149.01 -63c0,19 9,35 40,35 19,0 37,-6 56,-13 3,0 6,-3 6,-6 0,-13 -9,-28 -25,-41 -16,-13 -34,-25 -53,-32 -6,-3 -9,-6 -9,-9 0,-6 6,-16 12,-25l3 0c22,9 44,28 59,44 16,16 25,35 25,51 0,13 -3,25 -9,38 -22,13 -47,19 -68.01,19 -28,0 -50,-13 -50,-47 0,-3 0,-9 0,-16l9 0 0 0 0 0 0 0 3 3 1 -1 0 0 0 0 0 0 0.01 0zm-53 -54l19 28c6,9 12,22 12,41l0 25c0,19 -12,41 -31,60 -16,13 -28,19 -40,19 -19,0 -40,-6 -65,-16l3 -6c9,3 16,3 28,3 34,0 71.01,-25 87.01,-60 3,-3 3,-6 3,-9 0,-3 -3,-6 -3,-13 -9,-16 -19,-32 -31,-47 6,-9 12,-19 19,-28l0 0 0 0 0 3 0 0 -1 0 0 0 0 0 0 0 -0.01 0z"/>
  <g id="_2322597869680">
   <g>
    <circle class="fil3" cx="1194.29" cy="1042.02" r="637.54"/>
    <path class="fil4" d="M1194.28 403.63c352.11,0 637.56,285.44 637.56,637.56 0,180.33 -74.35,342.7 -194.84,458.93l-915.3 -887.95c117.08,-128.19 284.59,-208.52 471.75,-208.52l0.85 0 0 0 -0.02 -0.01z"/>
    <path class="fil5" d="M707.15 1070.23l0 -45.29 45.29 0 0 45.29 -45.29 0zm117.93 0l0 -322.2 43.58 0 169.21 252.97 0 -252.97 41.02 0 0 322.2 -43.59 0 -169.21 -252.97 0 252.97 -41.02 0zm326.47 0l0 -322.2 232.46 0 0 37.6 -189.73 0 0 99.15 177.77 0 0 37.6 -177.77 0 0 109.39 197.42 0 0 37.6 -240.15 0 0 0.85 0 0 -0 0zm381.15 0l0 -284.59 -105.97 0 0 -37.6 254.68 0 0 37.6 -105.97 0 0 284.59 -42.74 0z"/>
    <path class="fil5" d="M1069.5 1270.22l23.93 5.98c-5.13,19.66 -13.67,34.19 -26.49,44.44 -12.81,10.24 -28.21,15.38 -47.01,15.38 -18.8,0 -35.04,-4.27 -47,-11.96 -11.96,-7.69 -21.37,-18.8 -27.35,-34.19 -5.98,-14.53 -9.4,-30.77 -9.4,-47.86 0,-18.8 3.42,-35.04 10.26,-48.71 6.83,-13.68 17.09,-23.93 29.91,-31.62 12.81,-6.83 27.35,-11.11 42.73,-11.11 17.94,0 32.48,4.27 45.29,13.67 11.96,9.39 20.52,22.22 25.64,38.46l-23.07 5.13c-4.27,-12.81 -10.26,-22.22 -17.94,-28.2 -7.69,-5.99 -17.94,-8.54 -29.92,-8.54 -13.67,0 -24.79,3.42 -34.19,10.26 -9.4,6.83 -15.39,15.38 -19.66,26.49 -3.42,11.11 -5.98,22.22 -5.98,34.18 0,15.39 2.56,28.21 6.83,39.32 4.27,11.11 11.11,19.66 20.51,25.63 9.39,5.98 19.66,8.54 29.91,8.54 12.81,0 23.93,-3.42 33.33,-11.11 9.39,-7.69 15.38,-18.79 18.8,-34.19l0.85 0 0.02 0 0.01 0zm41.89 -1.71c0,-23.93 6.83,-41.87 19.66,-52.98 11.11,-9.4 24.79,-14.53 41.02,-14.53 17.95,0 32.48,5.98 43.58,17.09 11.11,11.96 17.09,27.35 17.09,47.86 0,16.23 -2.56,29.91 -7.69,39.31 -5.13,9.4 -11.96,17.09 -21.37,22.22 -9.4,5.13 -19.66,7.69 -30.76,7.69 -17.94,0 -32.48,-5.98 -43.58,-17.09 -11.11,-11.96 -17.09,-28.2 -17.09,-49.56l-0.85 -0.01 0 0 0 0zm22.22 0c0,16.24 3.42,29.06 11.11,36.75 6.84,8.54 16.23,11.96 27.35,11.96 11.11,0 19.66,-4.27 27.35,-11.96 6.83,-8.54 11.11,-20.5 11.11,-37.59 0,-16.25 -3.42,-28.21 -11.11,-35.89 -6.83,-8.54 -16.23,-11.96 -27.35,-11.96 -11.11,0 -19.66,4.27 -27.35,11.96 -6.83,8.54 -11.11,20.5 -11.11,36.75l0 -0.01 0 0zm123.92 64.95l0 -129.04 19.66 0 0 19.66c5.13,-9.39 9.4,-15.38 13.67,-17.94 4.27,-2.57 8.54,-4.27 13.67,-4.27 7.69,0 14.53,2.57 22.22,6.84l-7.69 20.51c-5.13,-2.57 -10.26,-4.27 -16.23,-4.27 -5.13,0 -9.41,1.71 -12.81,4.27 -3.42,2.57 -6.83,6.83 -7.69,11.96 -2.57,7.69 -3.42,16.23 -3.42,25.63l0 67.51 -22.22 0 0.85 -0.87 -0.02 0.01 -0 0zm170.93 -41.88l22.22 2.57c-3.42,12.81 -10.26,23.07 -19.66,30.76 -9.4,6.83 -22.22,11.11 -36.75,11.11 -18.8,0 -33.33,-5.98 -44.44,-17.09 -11.11,-11.96 -16.23,-28.21 -16.23,-48.71 0,-21.37 5.99,-38.45 17.09,-50.43 11.11,-11.96 25.64,-17.94 43.58,-17.94 17.09,0 31.62,5.98 41.88,17.94 11.11,11.96 16.23,28.21 16.23,49.56 0,1.71 0,3.42 0,5.98l-96.57 0c0.85,14.53 5.13,24.79 11.96,32.48 6.84,7.69 16.23,11.11 26.49,11.11 7.69,0 14.53,-1.71 20.52,-5.98 5.98,-4.27 10.26,-11.11 13.67,-20.51l0.01 -0.85 0 -0.01 -0 0.01zm-71.79 -35.04l71.79 0c-0.85,-11.11 -3.42,-18.8 -8.54,-24.79 -6.84,-8.54 -16.25,-12.81 -27.35,-12.81 -10.26,0 -18.8,3.42 -25.64,10.26 -6.83,6.84 -10.25,15.38 -11.11,27.35l0.85 0 0 0 0 -0z"/>
   </g>
   <g>
    <rect class="fil6" x="1950.44" y="443.52" width="1196.15" height="1196.15" rx="190.16" ry="190.16"/>
    <path class="fil7" d="M2338.9 794.63c1.54,2.88 27.36,19.05 30.33,19.69l0 -138.83 165.43 -0.01c30.21,0 66.78,8.33 92.78,22.14 8.87,4.72 16.25,9.56 24.05,14.18 -5.06,4.91 -45.13,28.77 -54.87,35.22 -13.33,8.83 -163.96,102.64 -167.02,106.07l27.41 17.28c2.17,0.26 54.72,-34.08 61.84,-38.36 39.06,-23.48 83.92,-54.24 122.62,-77.4l61.5 -38.37c-1.75,-3.48 -3.31,-4.58 -6.84,-7.53 -2.74,-2.3 -4.98,-4.67 -7.87,-7 -5.49,-4.41 -10.59,-8.72 -16.78,-13 -37.07,-25.64 -84.08,-43.22 -132.54,-43.29l-200.03 -0 0.01 149.22z"/>
    <path class="fil8" d="M2338.9 1122.31c40.43,0.13 80.86,0.01 121.28,0.01 40.23,0 79.75,1.74 118.38,-3.98l-0.09 -30.8c-34.35,6.12 -65.74,4.74 -101.26,4.74 -35.85,0 -71.74,0.13 -107.59,-0.02l-0.4 -214.56c4.81,1.85 8.64,5 13.02,7.63 28.96,17.41 61.73,39.42 91.31,57.64 17.56,10.82 34.49,22.04 52.21,32.92 9.66,5.93 47,30.42 52.77,32.86l-0 -35.91c-5.35,-2.09 -189.3,-119.24 -209.57,-131.71 -9.15,-5.63 -20.67,-14.3 -29.94,-18.71l-0.12 299.89z"/>
    <path class="fil9" d="M2692.96 748.88l19.15 26.84c5.85,9.52 10.88,19.37 15.37,30.36 26.25,64.21 17.63,135.44 -19.14,192.02 -10.27,15.8 -21.35,27.71 -33.71,39.67 -5.03,4.87 -35.12,28.53 -43.67,29.73l-0 -279.49 -30.17 18.39 -0.16 306.34c33.15,-5.87 81.84,-37.76 106.51,-64.81 2.07,-2.27 4.15,-4.01 6.3,-6.43 29.85,-33.66 59.3,-91.12 59.3,-151.13 -0,-36.14 -3.69,-62.43 -17.06,-95.46 -4.84,-11.96 -10.1,-22.15 -16.27,-32.64 -2.87,-4.89 -6.54,-10.63 -9.54,-14.97 -3.06,-4.44 -7.58,-10.87 -11.14,-14.4 -4.72,0.89 -8.67,4.65 -12.98,7.24l-12.79 8.72z"/>
    <path class="fil10" d="M2113.35 1360.09c28.36,0.01 60.59,4.04 82.47,-9.54 40.54,-25.16 41.46,-95.33 -0.74,-121.65 -20.67,-12.89 -54.72,-8.91 -81.73,-8.98l0 140.17z"/>
    <path class="fil11" d="M2113.35 1360.09l0 -140.17c27,0.07 61.06,-3.91 81.73,8.98 42.2,26.32 41.28,96.48 0.74,121.65 -21.87,13.57 -54.11,9.55 -82.47,9.54zm-25.28 23.69c18.28,1.76 44.43,0.25 63.58,0.26 37.86,0.02 64.33,-8.96 85.18,-42.5 8.56,-13.77 13.67,-31.45 13.78,-51.14 0.24,-40.7 -21.36,-69.04 -45.48,-83.28 -16.12,-9.51 -31.27,-11.17 -52.41,-11.15 -19.99,0.02 -45.09,-1.35 -64.44,0.2l-0.2 187.6z"/>
    <path class="fil11" d="M2510.99 1269.67c29.07,-4.61 51.19,15.01 54.76,39.46 9.48,64.93 -84.41,75.54 -93.68,16.22 -4.63,-29.64 14.33,-51.78 38.92,-55.68zm-39.63 1.12l0 -20.42c-4.54,-1.24 -18.88,-1.24 -23.42,0l-0 186.47c4.54,1.24 18.87,1.24 23.42,0l0.02 -74.08c8.18,6.76 12.58,16.56 30.68,21.95 14.48,4.31 32.46,3.67 45.82,-2.31 57.11,-25.57 54.47,-106.12 1.82,-130.43 -13.22,-6.11 -31.08,-7.65 -46.25,-3.46 -15.41,4.26 -20.13,10.28 -29.23,19.81l-2.85 2.46z"/>
    <path class="fil11" d="M2678.9 1270.08c65.42,-12.28 77.45,82.94 19.46,93.71 -64.55,11.99 -78.9,-82.56 -19.46,-93.71zm-37.78 1.57l-0.07 -21.94 -23.39 -0 -0.01 187.79 23.41 0 0.03 -75.46c8.46,9.69 14.93,17.9 30.24,22.56 42.69,13 87.41,-17.38 88.3,-66.52 0.9,-49.09 -43.23,-81.69 -86.91,-69.39 -17.81,5.02 -22.34,13.2 -31.6,22.96z"/>
    <path class="fil11" d="M2333.39 1269.68c28.78,-4.84 51.49,14.71 55.18,39.15 9.81,64.94 -85.04,76.41 -93.75,16.04 -4.17,-28.89 14.24,-51.09 38.57,-55.19zm55.7 92.76l0.09 21.34 23.68 0.17 0 -133.57c-5.27,-1.45 -17.97,-1.04 -23.68,-0.33l-0.06 21.21c-8.43,-8.4 -13.83,-17.47 -30.94,-22.44 -42.76,-12.4 -87.65,18.4 -87.52,68.2 0.17,68.41 79.22,89.18 111.69,53l6.75 -7.58z"/>
    <path class="fil11" d="M2804.1 1307.18c1.96,-21.83 20.88,-38.14 44.41,-38.74 23.32,-0.6 43.44,16.95 44.22,38.72l-88.64 0.02zm106.27 50.26c-0.67,-0.71 -0.57,-0.7 -1.73,-1.59l-17.57 -9.85c-3,2.25 -1.76,2.03 -3.76,4.49 -18.9,23.3 -74.31,21.74 -83.36,-22.71l112.26 -0.15c4.58,-41.04 -18.18,-72.18 -49.69,-79.65 -86.63,-20.54 -118.87,97.87 -49.21,132.16 29.44,14.5 75.63,8.51 93.05,-22.7z"/>
    <path class="fil10" d="M2678.9 1270.08c-59.44,11.15 -45.09,105.7 19.46,93.71 57.99,-10.78 45.96,-105.99 -19.46,-93.71z"/>
    <path class="fil10" d="M2333.39 1269.68c-24.33,4.09 -42.74,26.3 -38.57,55.19 8.71,60.37 103.56,48.9 93.75,-16.04 -3.69,-24.43 -26.4,-43.99 -55.18,-39.15z"/>
    <path class="fil10" d="M2510.99 1269.67c-24.59,3.9 -43.55,26.04 -38.92,55.68 9.27,59.33 103.15,48.71 93.68,-16.22 -3.57,-24.45 -25.69,-44.07 -54.76,-39.46z"/>
    <path class="fil11" d="M2967.28 1269.39l-0.15 -19.02c-5.31,-1.44 -17.9,-1.02 -23.67,-0.33l-0.01 133.74 23.69 0.17c0,-24.24 -1.51,-53.42 0.14,-76.56 1.75,-24.51 17.02,-34.24 41.21,-35.72l0.44 -23.95c-11.8,-1.71 -27.94,4.69 -34.41,12.31 -2.81,3.31 -3.98,6.76 -7.26,9.36z"/>
    <path class="fil10" d="M2804.1 1307.18l88.64 -0.02c-0.78,-21.76 -20.9,-39.31 -44.22,-38.72 -23.53,0.6 -42.45,16.91 -44.41,38.74z"/>
   </g>
  </g>
 </g>
</svg>
